<svg xmlns="http://www.w3.org/2000/svg" width="24" height="24" viewBox="0 0 24 24" style="fill:#fff;"> <path d="M12 0C5.373 0 0 5.373 0 12c0 5.303 3.438 9.8 8.207 11.39.6.11.823-.261.823-.577v-2.037c-3.338.727-4.042-1.61-4.042-1.61-.548-1.392-1.338-1.763-1.338-1.763-1.092-.75.083-.735.083-.735 1.208.085 1.839 1.244 1.839 1.244 1.074 1.842 2.815 1.307 3.494 1.003.108-.776.42-1.307.764-1.607-2.664-.307-5.467-1.332-5.467-5.927 0-1.311.47-2.376 1.243-3.218-.125-.306-.54-1.538.118-3.208 0 0 1.01-.323 3.305 1.236.957-.265 1.986-.397 3.005-.402 1.019.005 2.048.137 3.006.402 2.294-1.559 3.303-1.236 3.303-1.236.658 1.67.242 2.902.119 3.208.772.842 1.241 1.907 1.241 3.218 0 4.606-2.803 5.618-5.476 5.919.431.37.814 1.098.814 2.215v3.292c0 .318.222.689.828.574C20.561 21.797 24 17.299 24 12 24 5.373 18.627 0 12 0z"></path></svg>
  